<?xml version="1.0" standalone="no"?>
<!DOCTYPE svg PUBLIC "-//W3C//DTD SVG 20010904//EN"
 "http://www.w3.org/TR/2001/REC-SVG-20010904/DTD/svg10.dtd">
<svg version="1.0" xmlns="http://www.w3.org/2000/svg"
 width="300.000000pt" height="467.000000pt" viewBox="0 0 300.000000 467.000000"
 preserveAspectRatio="xMidYMid meet">
<metadata>
Created by potrace 1.10, written by Peter Selinger 2001-2011
</metadata>
<g transform="translate(0.000000,467.000000) scale(0.100000,-0.100000)"
fill="#000000" stroke="none">
<path d="M1180 4569 c-59 -24 -106 -102 -89 -148 6 -14 12 -77 15 -141 l5
-115 -53 -42 c-28 -24 -62 -43 -75 -43 -13 0 -51 14 -85 31 -35 18 -64 27 -69
22 -14 -14 36 -252 59 -282 31 -42 54 -38 117 19 40 36 60 49 68 41 13 -13 4
-33 -183 -426 -176 -370 -179 -379 -157 -443 9 -26 21 -66 27 -89 14 -54 73
-128 89 -109 20 23 58 120 86 216 15 52 43 128 61 169 19 41 31 77 28 80 -3 3
-21 -11 -39 -32 -26 -30 -46 -76 -85 -198 -28 -87 -56 -161 -61 -165 -18 -11
-28 8 -54 98 -32 111 -46 67 160 498 153 320 170 360 161 394 -11 44 -41 51
-90 22 -23 -14 -48 -32 -56 -40 -19 -24 -39 -19 -51 12 -17 44 -37 162 -29
167 4 3 24 -2 44 -10 19 -8 45 -15 57 -15 35 0 104 46 138 92 35 48 38 77 20
233 -11 103 -6 123 36 151 32 21 55 12 94 -36 l32 -40 -41 -38 c-29 -29 -40
-47 -40 -69 0 -32 26 -63 53 -63 21 0 97 74 97 94 0 8 4 18 10 21 13 8 66 -21
74 -41 12 -32 -53 -109 -160 -189 -41 -31 -80 -68 -88 -83 -44 -88 -17 -181
54 -182 19 0 58 34 165 143 189 191 258 274 300 358 21 41 40 67 46 63 34 -21
61 -183 40 -245 -6 -20 -33 -56 -61 -82 -62 -59 -130 -144 -130 -164 0 -22 37
-71 60 -78 25 -8 54 8 118 67 65 58 89 61 131 13 49 -56 44 -93 -28 -201 -82
-126 -86 -142 -56 -215 44 -103 42 -105 -95 -173 -132 -64 -190 -109 -190
-146 0 -14 15 -39 36 -61 l36 -37 -22 -42 -21 -42 22 -24 c27 -29 50 -25 94
17 37 34 44 35 77 9 39 -30 41 -56 6 -96 -23 -26 -38 -34 -64 -34 -49 0 -111
-28 -135 -61 -26 -37 -58 -131 -65 -193 -5 -43 -3 -55 15 -75 20 -22 23 -23
49 -10 15 7 44 28 65 46 43 38 85 43 161 17 67 -23 77 -48 48 -127 -20 -56
-21 -75 -16 -197 9 -219 18 -231 144 -204 79 17 81 17 108 -2 32 -24 72 -98
72 -134 0 -33 -58 -102 -104 -124 -29 -14 -106 -23 -106 -12 0 2 12 24 26 50
30 54 28 85 -6 105 -23 12 -39 10 -160 -23 -155 -42 -191 -65 -175 -113 7 -17
27 -35 60 -52 39 -20 51 -32 53 -53 3 -29 -12 -48 -81 -101 -74 -56 -40 -80
143 -101 96 -12 150 -24 189 -41 88 -41 257 -154 270 -181 32 -71 0 -111 -129
-165 -91 -37 -160 -50 -160 -29 0 5 15 31 34 58 53 72 54 93 12 139 -71 80
-334 193 -447 193 -45 0 -89 -33 -131 -99 -37 -59 -38 -112 -2 -140 33 -26 63
-15 125 46 l47 45 60 -7 c37 -4 67 -13 76 -24 14 -15 11 -21 -30 -65 -24 -27
-47 -60 -51 -75 -3 -14 -19 -38 -35 -53 -35 -33 -38 -82 -6 -109 27 -24 31
-24 67 7 20 16 31 35 31 51 0 25 1 26 61 20 34 -3 66 -10 72 -16 19 -19 -10
-59 -70 -97 -125 -80 -167 -110 -181 -131 -13 -20 -12 -24 10 -46 13 -13 62
-37 109 -52 107 -36 126 -49 139 -94 15 -55 14 -56 -47 -106 -100 -81 -225
-253 -268 -370 -23 -61 -33 -75 -54 -75 -21 0 -56 36 -65 66 -10 33 -51 66
-129 104 l-72 35 1 48 c0 45 4 52 45 90 25 23 62 69 83 102 21 33 63 84 93
112 53 50 55 54 41 75 -23 35 -59 33 -148 -6 -45 -20 -89 -36 -100 -36 -17 0
-50 34 -50 52 0 15 121 147 141 153 13 4 27 1 38 -9 39 -36 99 -8 127 60 35
85 3 134 -88 134 -47 0 -60 4 -89 30 -19 16 -39 30 -46 30 -32 0 -145 -131
-356 -416 -62 -83 -127 -162 -146 -175 l-33 -23 -24 27 c-15 18 -24 41 -24 63
0 43 35 131 84 209 21 33 60 95 87 138 26 42 52 77 58 77 5 0 12 -11 15 -25 3
-13 15 -29 26 -35 44 -23 126 46 273 230 142 176 180 237 173 276 -5 25 -1 35
25 60 39 37 69 95 69 134 0 43 -24 96 -53 114 -23 15 -30 15 -108 -10 -171
-53 -211 -92 -224 -217 -4 -37 -11 -67 -15 -67 -4 0 -13 13 -20 29 -6 16 -24
41 -40 56 l-28 27 -64 -21 c-35 -12 -83 -37 -107 -56 -24 -19 -47 -35 -51 -35
-17 0 -43 81 -38 118 7 45 54 122 76 122 8 0 30 -9 49 -21 29 -18 38 -19 62
-9 16 6 40 23 53 37 21 22 23 35 25 126 1 56 10 379 19 718 17 619 16 659 -16
659 -6 0 -10 -42 -10 -97 0 -54 -7 -314 -15 -578 -8 -264 -15 -552 -15 -640
l-1 -160 -33 -21 -33 -21 -36 34 c-20 18 -41 33 -46 33 -39 0 -124 -137 -123
-200 1 -65 46 -150 80 -150 7 0 34 17 58 39 35 30 139 81 166 81 3 0 25 -45
48 -100 40 -94 55 -119 66 -107 7 6 22 112 30 200 8 106 26 125 162 172 57 19
107 35 111 35 4 0 15 -22 25 -49 16 -45 16 -52 2 -78 -34 -63 -60 -84 -125
-101 -75 -20 -93 -42 -34 -42 49 0 83 -10 83 -23 0 -12 -141 -201 -229 -307
-34 -41 -88 -97 -119 -124 l-57 -49 -3 84 c-2 46 -7 88 -12 93 -4 4 -16 -4
-26 -20 -9 -16 -40 -65 -69 -109 -29 -44 -65 -102 -80 -130 -16 -27 -42 -69
-57 -92 -38 -56 -78 -164 -78 -209 0 -43 21 -85 55 -113 50 -38 91 -4 252 211
159 212 310 398 323 398 6 0 10 -9 10 -19 0 -34 38 -51 112 -51 l68 0 0 -35
c0 -67 -52 -127 -83 -96 -9 9 -6 22 11 52 13 23 21 43 18 46 -20 21 -266 -219
-266 -260 0 -29 33 -83 61 -97 24 -13 68 0 171 51 32 16 64 29 73 29 26 0 16
-19 -18 -34 -36 -14 -77 -62 -122 -139 -15 -26 -45 -62 -67 -80 -51 -41 -68
-74 -68 -135 0 -59 4 -63 113 -117 45 -22 84 -47 88 -55 29 -69 45 -91 77
-106 32 -15 38 -15 68 0 22 10 35 25 39 43 13 56 46 126 98 206 69 105 134
176 198 218 l51 33 -5 58 c-3 32 -12 69 -21 82 -19 29 -79 59 -178 89 -42 12
-76 26 -78 31 -1 5 51 41 116 80 106 63 122 76 142 118 l23 46 53 -15 53 -15
94 40 c52 22 106 43 120 47 35 9 79 77 79 121 0 59 -24 100 -77 130 -26 15
-69 42 -94 61 -117 83 -206 111 -418 128 l-85 7 54 27 c68 34 91 65 93 125 2
53 -2 57 -78 82 -70 23 -75 31 -31 49 30 13 279 85 293 85 11 0 -45 -89 -79
-126 -23 -25 -39 -46 -37 -48 10 -10 80 -12 137 -6 73 9 120 37 170 102 22 29
32 52 32 77 0 49 -40 131 -79 164 -39 33 -79 35 -172 8 l-66 -19 -6 164 c-5
158 -4 165 20 226 26 62 26 63 7 98 -21 39 -91 73 -175 85 -45 7 -47 6 -113
-50 -37 -32 -69 -55 -72 -52 -9 8 34 174 55 216 23 44 59 61 126 61 37 0 47 5
79 40 41 45 53 82 38 114 -11 24 -124 116 -142 116 -6 0 -10 -15 -10 -33 0
-39 -14 -59 -52 -75 -37 -15 -38 5 -3 38 17 16 25 34 25 57 0 28 -6 35 -40 53
-68 35 -55 50 110 138 52 28 110 53 127 57 41 8 46 16 44 77 0 35 -9 65 -27
95 -16 28 -24 53 -20 67 3 12 35 66 71 119 58 85 65 101 65 144 0 56 -23 99
-73 137 -56 43 -76 35 -188 -71 l-45 -43 -23 24 -23 25 58 66 c32 36 73 77 90
90 53 40 68 85 61 186 -6 97 -28 159 -70 198 -14 13 -32 21 -40 18 -8 -3 -24
-33 -37 -67 -33 -89 -87 -156 -284 -357 -158 -161 -175 -176 -191 -163 -14 11
-16 24 -11 62 10 70 13 75 78 119 74 51 163 141 189 191 l20 38 -27 35 c-17
22 -41 39 -67 47 -23 7 -59 30 -79 50 -21 21 -42 38 -47 38 -5 0 -12 9 -16 19
-12 37 -55 56 -95 40z m160 -193 c0 -15 -64 -76 -80 -76 -14 0 -12 15 4 55 13
29 20 35 45 35 20 0 31 -5 31 -14z m399 -2917 c54 -18 201 -93 249 -128 23
-17 42 -39 42 -49 -1 -9 -23 -46 -51 -80 -42 -53 -55 -63 -72 -57 -46 14 -94
24 -139 30 -64 8 -62 25 9 97 55 55 56 58 43 83 -20 37 -44 48 -130 61 l-75
12 -62 -60 c-64 -64 -93 -71 -93 -25 0 25 35 84 77 128 l24 26 72 -13 c39 -8
87 -19 106 -25z m-41 -331 c19 -19 14 -37 -13 -50 -32 -14 -37 -9 -29 30 7 33
22 40 42 20z"/>
<path d="M1584 4151 c-24 -15 -118 -119 -215 -239 -5 -7 -40 -56 -76 -110 -84
-123 -130 -222 -148 -314 -41 -216 -47 -1012 -10 -1368 17 -158 40 -210 94
-210 33 0 130 37 154 57 21 20 22 46 1 105 -14 44 -14 48 11 119 25 73 34 141
51 414 6 93 5 101 -15 119 -16 14 -29 17 -58 13 -30 -5 -42 -2 -60 15 -30 28
-29 38 6 94 17 25 33 59 36 75 9 39 23 45 46 20 34 -36 76 -20 93 36 8 24 -22
63 -49 63 -11 0 -9 11 10 53 14 28 25 64 25 78 0 37 -32 63 -67 55 -76 -19
-81 -19 -98 7 -23 35 -30 90 -13 103 7 6 46 16 86 21 40 6 84 18 97 27 63 42
93 184 47 226 -48 45 -96 5 -109 -90 -8 -53 -10 -55 -40 -58 -42 -4 -68 22
-77 78 -7 47 11 95 65 170 l30 41 35 -31 c39 -34 62 -33 102 3 28 26 29 81 2
146 -27 62 -17 91 42 120 73 35 111 127 70 164 -23 21 -30 21 -68 -2z m56 -27
c0 -40 -53 -104 -86 -104 -28 0 -61 -41 -70 -85 -4 -22 0 -44 14 -72 11 -21
23 -55 27 -76 6 -33 5 -38 -20 -49 -25 -11 -29 -10 -39 6 -20 34 -46 56 -66
56 -20 0 -64 -61 -117 -162 -25 -49 -26 -53 -14 -112 16 -81 35 -99 109 -104
71 -5 74 -2 83 86 7 65 27 101 49 87 18 -11 6 -108 -17 -148 -23 -39 -67 -56
-150 -56 -56 -1 -64 -4 -79 -26 -20 -30 -14 -97 12 -148 32 -61 63 -70 125
-35 21 12 42 19 45 15 11 -11 -26 -95 -61 -142 -42 -54 -60 -88 -74 -140 -6
-22 -27 -57 -46 -78 -33 -36 -34 -39 -21 -65 8 -15 30 -42 49 -60 34 -33 34
-33 72 -18 53 23 58 21 51 -21 -3 -21 -13 -123 -21 -227 -11 -142 -20 -199
-35 -234 -33 -74 -35 -111 -7 -165 l25 -48 -22 -8 c-11 -5 -46 -17 -77 -29
-31 -11 -61 -17 -68 -13 -64 40 -84 1254 -26 1536 32 152 180 388 364 578 76
79 91 89 91 61z m-170 -1114 c0 -18 -30 -70 -40 -70 -15 0 -12 18 7 51 17 29
33 38 33 19z"/>
<path d="M1718 3835 c-42 -42 -84 -117 -93 -165 -5 -28 -2 -42 15 -63 12 -15
30 -27 40 -27 34 0 102 102 130 197 11 36 11 46 -4 68 -22 34 -46 32 -88 -10z
m66 -22 c-11 -48 -95 -203 -110 -203 -39 0 4 122 67 195 37 42 52 45 43 8z"/>
<path d="M1654 2538 c-46 -32 -77 -82 -69 -108 4 -12 22 -28 39 -35 18 -8 45
-31 61 -52 15 -21 35 -44 44 -51 12 -10 13 -16 4 -30 -25 -36 -53 -106 -53
-133 0 -36 44 -73 71 -59 49 27 66 119 33 182 -13 26 -14 35 -3 55 10 19 10
39 -3 114 -25 138 -55 166 -124 117z m85 -119 c12 -61 20 -113 17 -116 -2 -3
-14 15 -26 39 -32 62 -59 88 -92 88 -15 0 -28 4 -28 9 0 11 86 91 98 91 5 0
19 -50 31 -111z m23 -226 c-2 -38 -5 -74 -7 -80 -5 -16 -45 -17 -45 -1 0 19
43 148 50 148 3 0 4 -30 2 -67z"/>
<path d="M1511 2274 c-26 -33 -28 -96 -3 -143 27 -55 46 -61 82 -26 50 48 49
118 -2 173 -28 29 -52 28 -77 -4z m64 -43 c18 -42 16 -72 -9 -106 -14 -20 -15
-19 -25 8 -12 31 -15 120 -4 130 13 13 20 7 38 -32z"/>
<path d="M1672 701 c-28 -21 -52 -81 -52 -130 0 -73 49 -74 114 -2 33 36 20
111 -23 138 -13 8 -22 7 -39 -6z m39 -52 c13 -40 12 -40 -31 -82 -24 -24 -40
-34 -36 -24 3 10 14 47 23 83 9 35 21 64 25 64 4 0 13 -18 19 -41z"/>
<path d="M1452 571 c-44 -47 -102 -153 -102 -186 0 -49 68 -105 129 -105 39 0
111 81 111 124 0 22 -28 46 -55 46 -32 0 -35 18 -12 67 20 41 20 43 2 63 -25
27 -42 25 -73 -9z m34 -48 c-31 -46 -33 -76 -5 -104 20 -20 32 -21 72 -4 27
11 20 -7 -22 -53 -21 -23 -48 -42 -59 -42 -24 0 -92 38 -92 51 0 17 57 123 91
169 39 53 52 38 15 -17z"/>
</g>
</svg>
